<svg xmlns="http://www.w3.org/2000/svg" version="1.1" xmlns:xlink="http://www.w3.org/1999/xlink" viewBox="0 0 200 200"><rect width="200" height="200" fill="url('#gradient')"></rect><defs><linearGradient id="gradient" gradientTransform="rotate(0 0.5 0.5)"><stop offset="0%" stop-color="#020617"></stop><stop offset="100%" stop-color="#020617"></stop></linearGradient></defs><g><g fill="#f1f5f9" transform="matrix(5.421176470588235,0,0,5.421176470588235,10.222815973031175,118.21452431510477)" stroke="#f1f5f9" stroke-width="0"><path d="M3.48-10.57L5.15-4.61L6.90-10.57L10.43-10.57L6.12 1.77L5.94 2.22Q5.02 4.27 2.70 4.27L2.70 4.27Q2.05 4.27 1.34 4.07L1.34 4.07L1.34 1.72L1.77 1.72Q2.46 1.72 2.83 1.52Q3.19 1.32 3.37 0.80L3.37 0.80L3.63 0.10L-0.04-10.57L3.48-10.57ZM13.33-3.19L13.33-3.19Q14.11-3.19 14.63-2.73Q15.15-2.27 15.15-1.54Q15.15-0.82 14.63-0.36Q14.11 0.11 13.33 0.11L13.33 0.11Q12.54 0.11 12.03-0.36Q11.51-0.83 11.51-1.54Q11.51-2.26 12.03-2.72Q12.54-3.19 13.33-3.19ZM13.33-10.99L13.33-10.99Q14.11-10.99 14.63-10.52Q15.15-10.06 15.15-9.34Q15.15-8.61 14.63-8.15Q14.11-7.69 13.33-7.69L13.33-7.69Q12.54-7.69 12.03-8.15Q11.51-8.62 11.51-9.34Q11.51-10.05 12.03-10.52Q12.54-10.99 13.33-10.99ZM19.34-3.19L19.34-3.19Q20.12-3.19 20.63-2.73Q21.15-2.27 21.15-1.54Q21.15-0.82 20.63-0.36Q20.12 0.11 19.34 0.11L19.34 0.11Q18.54 0.11 18.03-0.36Q17.52-0.83 17.52-1.54Q17.52-2.26 18.03-2.72Q18.54-3.19 19.34-3.19ZM19.34-10.99L19.34-10.99Q20.12-10.99 20.63-10.52Q21.15-10.06 21.15-9.34Q21.15-8.61 20.63-8.15Q20.12-7.69 19.34-7.69L19.34-7.69Q18.54-7.69 18.03-8.15Q17.52-8.62 17.52-9.34Q17.52-10.05 18.03-10.52Q18.54-10.99 19.34-10.99ZM25.34-3.19L25.34-3.19Q26.12-3.19 26.64-2.73Q27.16-2.27 27.16-1.54Q27.16-0.82 26.64-0.36Q26.12 0.11 25.34 0.11L25.34 0.11Q24.55 0.11 24.04-0.36Q23.53-0.83 23.53-1.54Q23.53-2.26 24.04-2.72Q24.55-3.19 25.34-3.19ZM25.34-10.99L25.34-10.99Q26.12-10.99 26.64-10.52Q27.16-10.06 27.16-9.34Q27.16-8.61 26.64-8.15Q26.12-7.69 25.34-7.69L25.34-7.69Q24.55-7.69 24.04-8.15Q23.53-8.62 23.53-9.34Q23.53-10.05 24.04-10.52Q24.55-10.99 25.34-10.99ZM31.35-3.19L31.35-3.19Q32.13-3.19 32.65-2.73Q33.16-2.27 33.16-1.54Q33.16-0.82 32.65-0.36Q32.13 0.11 31.35 0.11L31.35 0.11Q30.56 0.11 30.04-0.36Q29.53-0.83 29.53-1.54Q29.53-2.26 30.04-2.72Q30.56-3.19 31.35-3.19ZM31.35-10.99L31.35-10.99Q32.13-10.99 32.65-10.52Q33.16-10.06 33.16-9.34Q33.16-8.61 32.65-8.15Q32.13-7.69 31.35-7.69L31.35-7.69Q30.56-7.69 30.04-8.15Q29.53-8.62 29.53-9.34Q29.53-10.05 30.04-10.52Q30.56-10.99 31.35-10.99Z"></path></g></g></svg>